<svg id="svg451" version="1.1" viewBox="0 0 14.1 14.1" xmlns="http://www.w3.org/2000/svg">
    <path id="basket"
        d="m13.423 2.6517h-9.9127l-0.157-1.0503a1.413 1.413 0 0 0-1.3989-1.21676h-1.27639a0.628 0.628 0 1 0 0 1.25596h1.27799a0.157 0.157 0 0 1 0.157 0.1382l0.9671 6.6285a1.7364 1.7364 0 0 0 1.7097 1.4664h6.5332a1.727 1.727 0 0 0 1.694-1.38l1.022-5.0947a0.628 0.628 0 0 0-0.616-0.7473z" />
    <circle id="frontwheel" cx="10" cy="12" r="1.6" />
    <circle id="rearwheel" cx="5" cy="12" r="1.6" />
</svg>