<svg version="1.1" width="18" height="18" viewBox="0 0 14.1 14.1" xmlns="http://www.w3.org/2000/svg">
 <path d="m0.516832 0.66997c-0.257831 0-0.466832 0.209008-0.466832 0.466832 0 0.257824 0.209001 0.466832 0.466832 0.466832h1.48803l1.60474 7.57142c0.06349 0.285016 0.250284 0.522229 0.486283 0.520331h7.78054c0.246627 0.0034 0.473477-0.220174 0.473477-0.466833 0-0.246658-0.22685-0.470317-0.473477-0.466832h-7.40124l-0.199384-0.933664h8.22306c0.209016-0.0016 0.406502-0.160762 0.452236-0.364705l1.08928-4.66832c0.0607-0.270929-0.174595-0.566962-0.452236-0.568952h-10.494l-0.252867-1.18653c-0.04418-0.207289-0.245165-0.369793-0.457107-0.369575zm2.77182 2.48977h2.83017v1.4005h-2.53353zm3.76384 0h2.17855v1.4005h-2.17855zm3.11222 0h2.83504l-0.325818 1.4005h-2.50922zm-6.38004 2.33416h2.33416v1.40049h-2.03754zm3.26782 0h2.17855v1.40049h-2.17855zm3.11222 0h2.2904l-0.325818 1.40049h-1.96458zm-4.3571 4.82391c-0.853883 0-1.55611 0.702209-1.55611 1.55611 0 0.853882 0.702224 1.55611 1.55611 1.55611s1.55611-0.702225 1.55611-1.55611c0-0.853883-0.702225-1.55611-1.55611-1.55611zm4.3571 0c-0.853884 0-1.55611 0.702209-1.55611 1.55611 0 0.853882 0.702224 1.55611 1.55611 1.55611 0.853883 0 1.55611-0.702225 1.55611-1.55611 0-0.853883-0.702224-1.55611-1.55611-1.55611zm-4.3571 0.933665c0.3493 0 0.622443 0.273143 0.622443 0.622443 0 0.349283-0.273143 0.622442-0.622443 0.622442-0.349268 0-0.622443-0.273159-0.622443-0.622442 0-0.3493 0.273175-0.622443 0.622443-0.622443zm4.3571 0c0.349299 0 0.622443 0.273143 0.622443 0.622443 0 0.349283-0.273144 0.622442-0.622443 0.622442-0.349268 0-0.622444-0.273159-0.622444-0.622442 0-0.3493 0.273176-0.622443 0.622444-0.622443z"/>
</svg>
